<svg width="121" height="28" viewBox="0 0 121 28" fill="none" xmlns="http://www.w3.org/2000/svg">
<rect width="28" height="28" fill="#E1E4F2"/>
<rect width="7" height="28" fill="#474B66"/>
<rect x="7" width="7" height="28" fill="#747A9B"/>
<rect x="14" width="7" height="28" fill="#A8ADC9"/>
<rect x="21" width="7" height="28" fill="#E1E4F2"/>
<path d="M49.8671 6.95455V21.5H47.2109L40.8827 12.3452H40.7762V21.5H37.7009V6.95455H40.3998L46.6782 16.1023H46.806V6.95455H49.8671ZM57.2227 21.7131C56.1006 21.7131 55.1347 21.4858 54.325 21.0312C53.5201 20.572 52.8998 19.9233 52.4642 19.0852C52.0286 18.2424 51.8108 17.2457 51.8108 16.0952C51.8108 14.973 52.0286 13.9882 52.4642 13.1406C52.8998 12.2931 53.513 11.6326 54.3037 11.1591C55.0991 10.6856 56.0319 10.4489 57.102 10.4489C57.8217 10.4489 58.4917 10.5649 59.1119 10.7969C59.7369 11.0241 60.2814 11.3674 60.7455 11.8267C61.2142 12.286 61.5788 12.8636 61.8392 13.5597C62.0996 14.2509 62.2298 15.0606 62.2298 15.9886V16.8196H53.0182V14.9446H59.3818C59.3818 14.509 59.2871 14.1231 59.0977 13.7869C58.9083 13.4508 58.6455 13.188 58.3094 12.9986C57.9779 12.8045 57.592 12.7074 57.1517 12.7074C56.6924 12.7074 56.2852 12.8139 55.9301 13.027C55.5797 13.2353 55.3051 13.517 55.1062 13.8722C54.9074 14.2225 54.8056 14.6132 54.8009 15.044V16.8267C54.8009 17.3665 54.9003 17.8329 55.0991 18.2259C55.3027 18.6188 55.5892 18.9219 55.9585 19.1349C56.3278 19.348 56.7658 19.4545 57.2724 19.4545C57.6086 19.4545 57.9164 19.4072 58.1957 19.3125C58.4751 19.2178 58.7142 19.0758 58.9131 18.8864C59.1119 18.697 59.2634 18.465 59.3676 18.1903L62.1659 18.375C62.0239 19.0473 61.7327 19.6345 61.2923 20.1364C60.8567 20.6335 60.2933 21.0218 59.602 21.3011C58.9154 21.5758 58.1223 21.7131 57.2227 21.7131ZM66.1781 21.5L63.2094 10.5909H66.2705L67.9608 17.9205H68.0602L69.8216 10.5909H72.8259L74.6156 17.8778H74.708L76.3699 10.5909H79.4239L76.4622 21.5H73.2591L71.3841 14.6392H71.2491L69.3741 21.5H66.1781ZM79.4251 9.49006V6.95455H91.3711V9.49006H86.918V21.5H83.8782V9.49006H79.4251ZM94.808 21.706C94.112 21.706 93.4917 21.5852 92.9472 21.3438C92.4027 21.0975 91.9718 20.7353 91.6546 20.2571C91.3421 19.7741 91.1859 19.1728 91.1859 18.4531C91.1859 17.8471 91.2971 17.3381 91.5197 16.9261C91.7422 16.5142 92.0452 16.1828 92.4288 15.9318C92.8123 15.6809 93.2479 15.4915 93.7356 15.3636C94.228 15.2358 94.7441 15.1458 95.2839 15.0938C95.9183 15.0275 96.4297 14.9659 96.818 14.9091C97.2062 14.8475 97.4879 14.7576 97.6631 14.6392C97.8383 14.5208 97.9259 14.3456 97.9259 14.1136V14.071C97.9259 13.6212 97.7839 13.2732 97.4998 13.027C97.2204 12.7808 96.8227 12.6577 96.3066 12.6577C95.7621 12.6577 95.3289 12.7784 95.0069 13.0199C94.6849 13.2566 94.4718 13.5549 94.3677 13.9148L91.5694 13.6875C91.7114 13.0246 91.9908 12.4517 92.4075 11.9688C92.8241 11.4811 93.3615 11.107 94.0197 10.8466C94.6825 10.5814 95.4496 10.4489 96.3208 10.4489C96.9269 10.4489 97.5069 10.5199 98.0609 10.6619C98.6196 10.804 99.1144 11.0241 99.5452 11.3224C99.9808 11.6207 100.324 12.0043 100.575 12.473C100.826 12.937 100.951 13.4934 100.951 14.142V21.5H98.0822V19.9872H97.9969C97.8218 20.3281 97.5874 20.6288 97.2938 20.8892C97.0003 21.1449 96.6475 21.3461 96.2356 21.4929C95.8236 21.6349 95.3478 21.706 94.808 21.706ZM95.6745 19.6179C96.1196 19.6179 96.5126 19.5303 96.8535 19.3551C97.1944 19.1752 97.4619 18.9337 97.656 18.6307C97.8502 18.3277 97.9472 17.9844 97.9472 17.6009V16.4432C97.8525 16.5047 97.7223 16.5616 97.5566 16.6136C97.3956 16.661 97.2133 16.706 97.0097 16.7486C96.8061 16.7865 96.6025 16.822 96.3989 16.8551C96.1953 16.8835 96.0107 16.9096 95.845 16.9332C95.4898 16.9853 95.1797 17.0682 94.9146 17.1818C94.6494 17.2955 94.4434 17.4493 94.2967 17.6435C94.1499 17.8329 94.0765 18.0696 94.0765 18.3537C94.0765 18.7656 94.2256 19.0805 94.5239 19.2983C94.827 19.5114 95.2105 19.6179 95.6745 19.6179ZM103.256 21.5V6.95455H106.281V12.4233H106.374C106.506 12.1297 106.698 11.8314 106.949 11.5284C107.204 11.2206 107.536 10.965 107.943 10.7614C108.355 10.553 108.866 10.4489 109.477 10.4489C110.273 10.4489 111.007 10.6572 111.679 11.0739C112.351 11.4858 112.889 12.1084 113.291 12.9418C113.694 13.7704 113.895 14.8097 113.895 16.0597C113.895 17.2765 113.698 18.304 113.305 19.142C112.917 19.9754 112.387 20.6075 111.714 21.0384C111.047 21.4645 110.299 21.6776 109.47 21.6776C108.883 21.6776 108.383 21.5805 107.972 21.3864C107.564 21.1922 107.231 20.9484 106.97 20.6548C106.71 20.3565 106.511 20.0559 106.374 19.7528H106.239V21.5H103.256ZM106.217 16.0455C106.217 16.6941 106.307 17.2599 106.487 17.7429C106.667 18.2259 106.927 18.6023 107.268 18.8722C107.609 19.1373 108.024 19.2699 108.511 19.2699C109.004 19.2699 109.42 19.1349 109.761 18.8651C110.102 18.5904 110.36 18.2116 110.535 17.7287C110.715 17.241 110.805 16.6799 110.805 16.0455C110.805 15.4157 110.718 14.8617 110.543 14.3835C110.367 13.9053 110.109 13.5312 109.768 13.2614C109.427 12.9915 109.008 12.8565 108.511 12.8565C108.019 12.8565 107.602 12.9867 107.261 13.2472C106.925 13.5076 106.667 13.8769 106.487 14.3551C106.307 14.8333 106.217 15.3968 106.217 16.0455ZM117.582 21.6847C117.113 21.6847 116.711 21.5189 116.375 21.1875C116.043 20.8513 115.878 20.4489 115.878 19.9801C115.878 19.5161 116.043 19.1184 116.375 18.7869C116.711 18.4555 117.113 18.2898 117.582 18.2898C118.037 18.2898 118.434 18.4555 118.775 18.7869C119.116 19.1184 119.287 19.5161 119.287 19.9801C119.287 20.2926 119.206 20.5791 119.045 20.8395C118.889 21.0952 118.683 21.3011 118.427 21.4574C118.172 21.6089 117.89 21.6847 117.582 21.6847Z" fill="#191D33"/>
</svg>
